<svg version="1.1" id="Layer_1" xmlns="http://www.w3.org/2000/svg" xmlns:xlink="http://www.w3.org/1999/xlink" x="0px" y="0px"
	 width="100%" viewBox="0 0 1024 1024" enable-background="new 0 0 1024 1024" xml:space="preserve">
<path fill="#000000" opacity="1.000000" stroke="none" 
	d="
M398.836487,533.825928 
	C396.908661,540.071655 395.252655,546.001587 393.378540,551.861694 
	C391.815399,556.749512 388.594849,558.608521 384.298828,557.121277 
	C379.938171,555.611755 379.900940,551.994629 380.862579,548.431580 
	C384.415405,535.267456 388.121216,522.144470 391.826294,509.021942 
	C392.326630,507.249969 392.974365,505.547607 392.440063,503.551697 
	C390.280182,502.306366 388.364502,503.940216 386.326996,504.209839 
	C382.716156,504.687592 379.112640,504.979706 377.818420,500.404327 
	C376.575531,496.010468 378.102844,492.513123 382.917358,491.844299 
	C395.354034,490.116730 400.935120,482.846100 402.625397,470.981354 
	C403.509705,464.774231 405.748993,458.750031 407.511475,452.682465 
	C408.357971,449.768219 407.894592,448.198029 404.601135,447.220673 
	C364.404480,435.291901 336.630280,408.997955 318.751831,371.778503 
	C307.358002,348.058746 304.491486,322.854553 307.540833,296.844055 
	C311.451935,263.483002 325.182068,234.873154 349.648682,211.868484 
	C371.073669,191.723724 396.445435,179.432632 425.857788,175.510635 
	C465.734619,170.193268 502.035339,178.874756 533.982056,203.309555 
	C560.633789,223.694427 577.541626,250.764847 584.231384,283.733612 
	C592.450378,324.238831 585.383606,361.974945 560.898743,395.533295 
	C543.313782,419.634857 520.605042,437.499817 491.610901,446.415924 
	C488.131989,447.485748 484.757721,448.229126 486.415466,453.333496 
	C487.908844,457.931915 489.323547,458.952057 494.103607,457.475525 
	C511.108429,452.222778 528.106689,446.948761 545.098267,441.653412 
	C576.540894,431.854462 607.965515,421.997345 639.434265,412.283142 
	C642.492432,411.339142 644.223572,409.902832 644.874084,406.672089 
	C648.570801,388.312714 652.406982,369.981354 656.218445,351.645203 
	C656.604492,349.787689 655.971008,348.247589 654.621033,347.183319 
	C646.028259,340.408905 645.870911,331.384521 647.695923,321.799988 
	C648.346802,318.381866 648.996338,314.963226 649.683716,311.552368 
	C651.978149,300.166870 662.173157,293.496307 673.612732,295.879181 
	C684.044922,298.052246 689.698975,307.327271 687.581116,318.661652 
	C686.758972,323.061523 685.917847,327.472412 685.424805,331.915955 
	C684.572327,339.600006 680.497070,344.967133 673.685120,348.064453 
	C670.261658,349.621033 668.627502,351.685486 667.933350,355.361664 
	C664.943848,371.193329 661.669556,386.971100 658.530334,402.774750 
	C658.407349,403.394379 658.605530,404.077820 658.666748,404.902588 
	C662.028564,406.524933 664.736450,403.942322 667.718628,403.565369 
	C669.183533,403.380219 670.590820,402.741241 672.024841,402.309967 
	C675.897888,401.145172 679.467102,401.118713 681.077026,405.679504 
	C682.461731,409.602325 680.194336,413.103485 675.432739,414.619019 
	C667.184387,417.244293 658.952454,419.942291 650.617737,422.265594 
	C646.255554,423.481537 644.725952,425.520905 645.652893,430.153107 
	C653.532471,469.528625 661.236572,508.939240 669.012573,548.335571 
	C669.815674,552.404236 669.152161,555.752136 664.686157,557.070923 
	C660.687317,558.251831 657.122009,555.754150 656.027222,550.985779 
	C654.913147,546.133484 653.912109,541.247925 653.086670,536.338989 
	C652.412842,532.331665 650.400635,530.966614 646.265320,530.999939 
	C620.772217,531.205383 595.276855,531.153198 569.782288,531.177612 
	C515.624878,531.229553 461.467468,531.264648 407.310150,531.356506 
	C404.422852,531.361389 401.191833,530.499878 398.836487,533.825928 
M591.967224,440.595856 
	C534.938660,458.327454 477.992584,476.333679 420.801117,493.523407 
	C411.136749,496.428162 406.289734,500.961456 404.915070,510.705811 
	C403.935333,517.651062 403.429993,517.697815 410.539429,517.696289 
	C477.834167,517.682068 545.128906,517.665527 612.423645,517.649719 
	C622.751038,517.647278 633.078552,517.672302 643.405762,517.631042 
	C648.413147,517.611023 649.160461,516.588196 648.184021,511.595520 
	C647.323242,507.194397 646.514954,502.783051 645.674561,498.377899 
	C641.605103,477.047241 637.525391,455.718506 633.467163,434.385681 
	C632.652100,430.101349 630.761414,428.613434 626.145264,430.152893 
	C615.101868,433.835724 603.888672,437.009735 591.967224,440.595856 
M475.036102,332.454407 
	C495.297882,352.678101 515.560486,372.900970 535.820801,393.126129 
	C541.460327,398.755829 541.656738,398.761414 546.716919,392.460968 
	C562.667480,372.601196 571.779785,349.944031 574.414307,324.642944 
	C574.798462,320.953705 573.398804,318.976166 569.439087,318.984192 
	C538.147705,319.047668 506.856171,319.077057 475.564697,319.062164 
	C472.628510,319.060760 471.058777,320.451721 469.892792,323.004028 
	C468.756195,325.492157 469.731628,327.118439 471.399780,328.731689 
	C472.476105,329.772644 473.497589,330.870270 475.036102,332.454407 
M569.683777,276.748383 
	C563.922241,258.243134 554.631958,241.837097 541.122375,227.686539 
	C535.781616,231.296524 532.364502,236.086487 528.284546,240.176620 
	C510.069794,258.436798 491.915588,276.757294 473.746521,295.062988 
	C471.477295,297.349304 469.440521,299.535095 470.985077,303.337280 
	C472.513733,307.100403 475.458557,306.740814 478.435913,306.740509 
	C498.072052,306.738586 517.708191,306.725494 537.344299,306.712311 
	C547.495117,306.705505 557.647217,306.780457 567.796326,306.644257 
	C573.259583,306.571014 574.147278,305.387665 573.912415,300.026978 
	C573.575867,292.342590 571.901733,284.909210 569.683777,276.748383 
M340.910400,384.616699 
	C342.828033,387.131134 344.672485,389.705719 346.677704,392.148224 
	C351.717499,398.287140 352.056427,398.318634 357.706329,392.671661 
	C378.556458,371.832153 399.380493,350.966492 420.199341,330.095703 
	C422.277985,328.011932 424.834351,326.204376 423.257538,322.457092 
	C421.728485,318.823364 418.770691,319.018097 415.752472,319.026886 
	C386.099243,319.113342 356.446045,319.199371 326.792816,319.292084 
	C319.726837,319.314178 318.399414,320.822510 319.421936,328.041107 
	C322.286194,348.261597 329.047546,367.031067 340.910400,384.616699 
M345.499817,306.849976 
	C368.494263,306.819672 391.488708,306.786499 414.483154,306.762085 
	C417.943329,306.758423 421.041565,306.390472 422.768097,302.603912 
	C424.544922,298.706970 421.545319,297.092621 419.558807,295.102142 
	C399.080780,274.582855 378.552277,254.113831 358.013489,233.655258 
	C352.364471,228.028305 351.536652,228.207855 346.461304,234.458267 
	C330.539764,254.066162 322.377258,276.752777 319.475677,301.588440 
	C319.056305,305.177948 320.187714,306.929352 324.005249,306.869110 
	C330.835175,306.761353 337.668182,306.848022 345.499817,306.849976 
M440.706299,279.375031 
	C440.693604,252.209854 440.681854,225.044662 440.667816,197.879486 
	C440.661743,186.140457 440.458679,185.881638 428.880920,187.568542 
	C405.981293,190.905121 385.368317,199.655975 367.145996,213.970383 
	C362.248291,217.817734 362.107635,219.355164 366.601501,223.888702 
	C376.221527,233.593658 385.872955,243.267639 395.542053,252.923752 
	C406.744324,264.111023 418.023712,275.221497 429.171783,286.462311 
	C432.306854,289.623474 435.529816,290.823486 439.254364,287.850098 
	C441.729645,285.874054 440.370667,282.870728 440.706299,279.375031 
M524.520813,211.986526 
	C522.476440,210.559036 520.477600,209.060623 518.380615,207.715195 
	C501.033569,196.585495 482.062469,189.939285 461.662781,187.273132 
	C453.101990,186.154251 453.007629,186.165848 453.042175,194.787201 
	C453.118195,213.756104 453.330780,232.724442 453.421997,251.693314 
	C453.473175,262.340393 453.304718,272.989014 453.414490,283.635071 
	C453.461517,288.196716 456.356598,290.748840 459.853088,289.687317 
	C461.845612,289.082397 463.081116,287.401031 464.473938,285.987396 
	C484.904480,265.252258 505.311920,244.494339 525.762512,223.778992 
	C531.768799,217.694962 531.822632,217.748108 524.520813,211.986526 
M391.137054,377.636414 
	C382.905243,385.900787 374.637054,394.129333 366.455048,402.442749 
	C361.431580,407.546997 361.505920,409.003387 367.225006,413.476196 
	C378.458099,422.261353 390.600708,429.373962 404.330383,433.640991 
	C411.938477,436.005554 412.425018,436.018097 414.461182,428.654602 
	C422.350220,400.124939 430.169495,371.575989 437.980591,343.024872 
	C438.614502,340.707825 439.938354,338.203674 436.926422,336.369843 
	C433.742157,334.431152 432.062134,336.716888 430.171021,338.609039 
	C417.331055,351.456238 404.477417,364.289764 391.137054,377.636414 
M512.441223,422.941437 
	C516.919434,419.768402 521.488892,416.715179 525.852905,413.392242 
	C531.401550,409.167389 531.497253,407.196625 526.580322,402.267059 
	C511.305267,386.952820 495.995331,371.673370 480.683838,356.395477 
	C474.206146,349.932007 467.668152,343.528809 461.207367,337.048553 
	C459.401489,335.237244 457.637939,335.031158 455.403839,336.286499 
	C453.215942,337.515930 453.625244,339.204590 454.137054,341.017090 
	C454.858856,343.573120 455.603210,346.122864 456.346588,348.672760 
	C464.386597,376.250275 472.457764,403.818787 480.434235,431.414703 
	C481.497803,435.094330 483.157623,436.066406 486.950256,434.730164 
	C495.608276,431.679779 504.045929,428.245270 512.441223,422.941437 
M460.396545,439.706024 
	C469.160217,439.505920 469.426025,439.170593 467.017212,430.893402 
	C461.071899,410.463837 455.129578,390.033295 449.112366,369.624847 
	C448.646057,368.043152 448.837463,365.853577 446.320465,365.247070 
	C445.976044,365.815277 445.501251,366.324799 445.329315,366.921631 
	C438.796112,389.598663 432.312408,412.290009 425.760101,434.961548 
	C424.680634,438.696625 427.026794,439.350800 429.703125,439.585663 
	C439.625610,440.456573 449.555298,441.631134 460.396545,439.706024 
M471.148834,464.596161 
	C474.570374,463.837982 476.622742,462.313507 475.105499,458.330841 
	C473.893677,455.149872 474.522400,450.529602 468.788727,451.426910 
	C454.432373,453.673615 440.067474,454.031799 425.683960,451.531494 
	C422.865540,451.041565 420.977692,452.249176 420.187317,455.263977 
	C418.420197,462.004730 416.319092,468.659058 414.605591,475.412384 
	C413.315887,480.495392 414.972107,482.064331 420.002563,480.517487 
	C436.820831,475.345917 453.596924,470.037262 471.148834,464.596161 
M436.216461,304.781586 
	C432.897247,309.713501 432.809113,314.728851 436.102142,319.652496 
	C438.824890,323.723511 443.050354,325.535614 447.662598,325.056976 
	C453.692749,324.431244 457.615356,320.525940 459.187866,314.735504 
	C460.401550,310.266266 458.287048,306.555664 455.078308,303.643372 
	C449.685791,298.748993 442.743988,299.051727 436.216461,304.781586 
M660.841003,334.438629 
	C665.562073,338.541473 670.949402,337.163849 672.450012,331.120300 
	C673.686401,326.140778 674.084595,320.959076 675.056458,315.905823 
	C675.700195,312.558472 674.348267,310.339874 671.537598,308.994415 
	C668.349548,307.468262 664.893188,308.437347 663.695068,311.284851 
	C660.694153,318.417084 658.857666,325.946869 660.841003,334.438629 
z"/>
<path fill="#000000" opacity="1.000000" stroke="none" 
	d="
M624.033569,826.042725 
	C627.816528,834.983215 631.413696,843.589783 635.073425,852.169617 
	C635.831787,853.947510 636.171753,856.404724 638.578186,856.596375 
	C641.210144,856.806091 641.540527,854.146484 642.252625,852.469360 
	C648.565369,837.603394 654.876709,822.733459 660.864563,807.735352 
	C662.360168,803.989319 663.890381,801.902649 668.348938,802.480469 
	C671.767639,802.923584 675.319519,802.385437 678.808838,802.215149 
	C680.301453,802.142212 681.824036,801.750061 682.875854,803.301208 
	C682.875854,803.625122 682.976624,804.186035 682.861450,804.234619 
	C675.949585,807.147095 675.962158,812.930237 676.203552,819.177185 
	C676.775696,833.983521 677.024658,848.802856 677.340576,863.618347 
	C677.465576,869.479919 678.790100,874.519714 685.548828,876.189148 
	C682.267395,879.332764 662.706604,879.868286 658.447937,877.281738 
	C658.527588,876.978333 658.541687,876.440430 658.699036,876.394653 
	C666.586609,874.096985 666.830627,868.268127 666.362793,861.413208 
	C665.682922,851.451172 665.807312,841.432678 665.646851,831.437439 
	C665.577515,827.118896 665.097412,822.872864 664.139160,818.580566 
	C661.937256,818.837952 661.962219,820.639954 661.458191,821.854675 
	C654.182190,839.391846 646.983337,856.960999 639.706238,874.497681 
	C638.918579,876.395752 638.610291,879.151611 635.805176,879.049255 
	C633.098450,878.950500 632.798889,876.185120 631.994324,874.312927 
	C625.155884,858.399963 618.431946,842.437805 611.633911,826.507385 
	C610.807800,824.571350 610.284912,822.419861 608.402771,820.671143 
	C606.412415,822.663391 606.475037,825.061218 606.458679,827.235840 
	C606.358398,840.566956 606.367737,853.899231 606.406128,867.230957 
	C606.417053,871.041199 607.715576,874.068848 611.872192,875.124329 
	C612.932190,875.393494 614.243896,875.611572 614.427307,878.105957 
	C606.669556,879.748169 598.959900,879.451965 591.088867,878.297241 
	C591.264893,877.116150 591.235474,876.561829 591.369934,876.518738 
	C598.535400,874.221863 599.582825,868.832764 599.860291,862.079468 
	C600.488831,846.780457 601.608215,831.504883 601.787354,816.178101 
	C601.848389,810.958740 600.645569,807.346313 594.830566,806.663208 
	C593.367554,806.491333 591.808716,806.023132 591.935852,803.565491 
	C595.540588,801.689331 599.564331,802.746826 603.381836,802.653564 
	C614.056946,802.392883 614.071472,802.505920 618.268127,812.335510 
	C620.164673,816.777649 622.004456,821.243958 624.033569,826.042725 
z"/>
<path fill="#000000" opacity="1.000000" stroke="none" 
	d="
M533.358032,762.443237 
	C533.420349,768.200378 536.372131,771.365540 541.726013,772.605713 
	C538.023499,776.143066 517.165527,776.283264 513.723206,773.003723 
	C523.281128,769.930298 521.472717,761.998047 521.632507,754.911072 
	C521.737732,750.247070 521.556885,745.576172 521.687256,740.913452 
	C521.777466,737.684509 520.310242,736.378662 517.207031,736.389343 
	C507.041321,736.424316 496.875427,736.412842 486.709595,736.398682 
	C482.750183,736.393188 481.016724,738.243042 481.149475,742.276367 
	C481.324768,747.603149 481.126709,752.941101 481.173981,758.273499 
	C481.226807,764.229858 479.830536,770.924255 488.779785,772.185608 
	C485.450409,776.341187 464.679565,776.400940 461.286377,772.320801 
	C470.099548,771.385498 468.906494,764.872314 468.915161,759.134338 
	C468.940094,742.636292 468.750427,726.137695 468.835022,709.640198 
	C468.860626,704.654724 468.604584,700.208191 462.640228,698.746338 
	C462.192474,698.636536 461.937775,697.739197 461.051392,696.372009 
	C470.524048,696.372009 479.287384,696.372009 488.371216,696.372009 
	C488.022064,697.390564 487.957611,698.162476 487.705170,698.229736 
	C480.797150,700.072449 481.060822,705.508240 481.174744,710.957520 
	C481.282715,716.121643 481.268188,721.289185 481.239899,726.454895 
	C481.224030,729.359253 482.494110,730.679443 485.471436,730.659302 
	C495.970123,730.588379 506.469910,730.575989 516.968445,730.653992 
	C520.162781,730.677734 521.585144,729.184998 521.597961,726.156128 
	C521.624817,719.823853 521.841248,713.478821 521.509399,707.163818 
	C521.320740,703.574219 519.808411,700.341003 515.707336,699.323181 
	C514.542480,699.034058 513.496826,698.539734 513.079712,695.949280 
	C522.069153,695.334045 530.899414,695.625366 540.016602,695.802185 
	C539.792908,697.117859 539.835693,697.912231 539.618530,697.991089 
	C533.277832,700.294067 533.175964,705.441528 533.233093,711.006042 
	C533.407471,728.003052 533.327820,745.002686 533.358032,762.443237 
z"/>
<path fill="#000000" opacity="1.000000" stroke="none" 
	d="
M628.880005,695.579346 
	C650.660645,690.468445 672.186462,698.520325 678.777222,718.825928 
	C686.673462,743.153503 678.525208,768.015137 649.410889,774.835266 
	C628.502319,779.733215 607.314148,771.065247 600.637085,748.755127 
	C593.694153,725.556763 604.930481,702.815430 626.505676,696.025146 
	C627.135620,695.826904 627.809326,695.767639 628.880005,695.579346 
M629.631653,702.051575 
	C622.265808,705.081909 617.526672,710.544128 614.642578,717.874939 
	C609.955322,729.789246 611.019409,741.559692 615.448547,753.200378 
	C619.536926,763.945740 627.750549,770.082336 638.958984,770.335144 
	C649.998413,770.584045 658.818115,765.323303 663.833374,754.999756 
	C669.399475,743.542542 669.653809,731.675049 666.081482,719.602783 
	C661.595032,704.441284 645.791321,695.062744 629.631653,702.051575 
z"/>
<path fill="#000000" opacity="1.000000" stroke="none" 
	d="
M759.877258,773.076660 
	C743.767212,753.416809 727.875977,734.032898 711.608032,714.189453 
	C709.514526,717.687439 709.421204,720.636780 709.409546,723.577515 
	C709.361389,735.739197 709.486877,747.903503 709.263550,760.061707 
	C709.161011,765.643494 710.352600,769.982422 716.462708,771.445190 
	C716.765259,771.517639 717.064270,771.757385 717.279907,771.996033 
	C717.487183,772.225464 717.583923,772.554749 718.111206,773.590576 
	C709.968506,774.992004 702.172607,774.349976 694.594543,774.103394 
	C693.994141,771.918701 694.867554,771.212952 695.825317,771.059509 
	C701.604980,770.134399 702.665222,766.110535 702.674866,761.173218 
	C702.708008,744.180115 702.841919,727.187256 702.881470,710.194214 
	C702.899963,702.277649 702.466797,701.740479 695.068054,699.203369 
	C694.051819,698.854858 693.268372,698.369568 693.240845,697.168701 
	C699.728455,693.391357 711.877625,695.553284 716.267944,701.004700 
	C728.591064,716.306213 741.025024,731.518555 753.433594,746.751160 
	C754.360291,747.888672 755.237000,749.168579 756.882019,749.427673 
	C759.201416,748.472778 758.702271,746.406799 758.716309,744.695496 
	C758.806702,733.700745 758.858276,722.705200 758.824768,711.710144 
	C758.807068,705.905762 758.560547,700.138977 751.173706,698.520203 
	C750.599365,698.394409 750.191284,697.655273 750.648193,696.181885 
	C758.086182,695.170166 765.744873,695.671570 773.412964,695.886047 
	C773.412964,697.091492 773.467468,697.364807 773.405212,697.394653 
	C763.982544,701.910339 765.635742,710.793091 765.530090,718.575317 
	C765.288940,736.361938 765.627502,754.156555 765.757812,771.947693 
	C765.766357,773.116638 766.105286,774.409058 764.806763,775.036560 
	C762.746399,776.032349 761.328369,774.867249 759.877258,773.076660 
z"/>
<path fill="#000000" opacity="1.000000" stroke="none" 
	d="
M426.483124,805.255859 
	C436.233154,800.738098 446.079437,800.099609 456.051086,802.220581 
	C476.199829,806.506226 484.213318,821.666321 485.169128,839.558838 
	C486.233521,859.484436 473.664948,875.770447 454.192017,879.791382 
	C435.833160,883.582214 419.784943,878.754211 410.324219,862.961548 
	C400.764893,847.004211 403.191528,826.251892 415.595306,812.898376 
	C418.580536,809.684509 422.295593,807.451111 426.483124,805.255859 
M426.505676,866.962891 
	C438.537872,879.103333 454.772552,878.358643 464.776001,864.673889 
	C473.291016,853.025269 473.491486,839.770630 469.678101,826.481995 
	C466.209930,814.396423 456.239929,806.117676 445.657501,806.539062 
	C434.644531,806.977478 423.934784,811.998718 419.610229,826.154785 
	C415.231750,840.487549 417.174500,854.083130 426.505676,866.962891 
z"/>
<path fill="#000000" opacity="1.000000" stroke="none" 
	d="
M556.880127,803.936646 
	C574.704346,811.182434 581.349854,828.238525 579.973694,843.654358 
	C578.170044,863.857422 565.120972,877.587585 546.946716,880.354126 
	C520.110229,884.439148 503.745972,868.492798 500.240997,849.136108 
	C495.950897,825.443726 512.457275,802.773438 535.981812,801.551208 
	C543.012024,801.185974 549.882874,801.157166 556.880127,803.936646 
M513.024475,834.322815 
	C511.684479,844.873169 513.256104,854.933350 519.136963,863.874695 
	C528.170654,877.609680 545.101013,879.219482 556.835999,867.758057 
	C569.248779,855.634644 570.272827,828.411316 558.831421,815.320251 
	C553.462585,809.177246 546.708557,805.735291 538.589355,806.535645 
	C524.313904,807.942688 514.311951,818.849548 513.024475,834.322815 
z"/>
<path fill="#000000" opacity="1.000000" stroke="none" 
	d="
M487.055664,639.000000 
	C487.214844,629.173767 487.312103,619.845825 487.560150,610.521973 
	C487.702728,605.164062 485.765350,601.238831 480.138519,599.099670 
	C488.622467,596.798584 496.752258,597.997559 504.874390,597.459412 
	C504.874390,598.806824 504.969604,599.374451 504.860779,599.416748 
	C497.580078,602.245422 498.269806,608.456299 498.343842,614.484070 
	C498.533020,629.887512 496.232910,628.599060 512.541626,628.609253 
	C517.207642,628.612122 521.874084,628.664185 526.539490,628.614075 
	C533.081543,628.543823 533.897705,627.681641 534.024109,620.990356 
	C534.039856,620.157532 534.061157,619.321350 534.008606,618.491272 
	C533.560242,611.406494 536.749512,603.185547 527.270203,598.546509 
	C535.853333,597.416565 543.836487,596.982239 552.383972,598.819458 
	C543.490479,602.513367 545.399231,609.907288 545.364197,616.521484 
	C545.299866,628.686218 545.345337,640.851501 545.346008,653.016602 
	C545.346497,662.532837 545.347107,662.532837 551.850464,668.123047 
	C548.721008,671.086243 531.379578,671.156189 527.425171,667.816101 
	C535.164185,665.229553 533.988647,658.847351 534.020447,652.963989 
	C534.042969,648.798340 533.996277,644.632385 534.019165,640.466797 
	C534.038940,636.858765 532.334961,634.668274 528.696777,634.608459 
	C520.704529,634.476990 512.694092,634.263672 504.720886,634.669739 
	C500.669373,634.876038 498.138367,637.472534 498.341949,642.069092 
	C498.511383,645.893921 498.363403,649.733093 498.342346,653.565857 
	C498.310120,659.427917 497.520416,665.619141 505.446045,667.687256 
	C501.542267,671.149902 483.842529,671.169495 479.660492,667.742371 
	C488.492065,665.553894 487.004181,658.691589 487.045349,652.498413 
	C487.074127,648.165771 487.054810,643.832825 487.055664,639.000000 
z"/>
<path fill="#000000" opacity="1.000000" stroke="none" 
	d="
M324.428345,763.251648 
	C323.319183,767.268860 323.319183,767.268860 330.064972,773.615356 
	C326.929626,775.992493 311.985443,776.164368 308.080200,773.868225 
	C308.091492,773.704346 308.052948,773.422058 308.121155,773.393372 
	C318.293457,769.110779 318.995209,758.695618 322.548492,750.381653 
	C329.804901,733.403137 336.295776,716.097778 343.138763,698.941711 
	C343.859131,697.135742 344.371582,694.944458 346.933136,694.860840 
	C349.564331,694.774963 350.096313,697.010193 350.823730,698.791870 
	C359.066864,718.981323 367.307953,739.171936 375.432068,759.409424 
	C377.677826,765.003662 379.350433,770.895813 386.293121,772.567627 
	C386.597260,772.640869 386.748657,773.348450 386.967255,773.753235 
	C383.819275,775.868835 363.509369,776.136292 359.429077,774.053833 
	C359.710541,773.506775 359.846771,772.715332 360.293884,772.452393 
	C366.601257,768.743103 366.611511,768.760498 363.895050,761.599915 
	C358.330475,746.931763 358.329987,746.857117 343.052521,746.956665 
	C329.061859,747.047852 331.448181,745.413025 326.108368,758.675415 
	C325.548798,760.065186 325.061798,761.484070 324.428345,763.251648 
M334.549133,740.813049 
	C340.247345,742.544983 346.069305,741.460571 351.833557,741.486694 
	C353.791016,741.495544 354.964935,740.041809 354.273376,738.045898 
	C351.476959,729.975586 348.457428,721.990234 344.083466,712.851440 
	C340.499115,722.957031 336.001434,731.075500 334.549133,740.813049 
z"/>
<path fill="#000000" opacity="1.000000" stroke="none" 
	d="
M405.460083,699.315430 
	C414.894135,693.368347 424.687592,693.529358 434.606445,696.204651 
	C437.213165,696.907715 440.931000,695.975708 442.268280,698.649902 
	C444.146790,702.406250 443.285004,706.817932 443.260742,710.967407 
	C443.254669,712.010803 442.833405,712.923279 441.566772,713.025940 
	C440.097321,713.145142 439.540436,712.004700 439.000214,711.010620 
	C436.093414,705.661682 432.047485,701.813477 425.994324,700.132019 
	C420.142181,698.506409 413.381317,701.005066 410.523834,706.201538 
	C407.594421,711.528748 408.939148,717.465027 414.156769,721.749451 
	C418.581329,725.382629 423.947754,727.374939 428.941467,730.012756 
	C431.147278,731.177856 433.466278,732.144653 435.605286,733.417542 
	C448.416504,741.041260 448.608551,747.764648 446.819916,760.042419 
	C445.379456,769.930298 436.397766,775.880188 425.167389,776.491577 
	C416.739563,776.950378 408.604919,776.358704 400.949066,772.344727 
	C397.826935,770.707703 395.945923,768.754395 396.589417,764.915283 
	C397.231110,761.087097 395.724701,757.013245 397.601562,753.239624 
	C400.893280,752.922302 401.081146,755.526611 401.904053,757.329102 
	C405.755859,765.766052 411.768250,771.002380 421.516266,770.885742 
	C429.037384,770.795776 433.739288,767.562927 435.959442,760.924805 
	C437.674347,755.797302 435.244385,748.991699 430.220825,745.013977 
	C426.002502,741.673828 421.029572,739.666992 416.297638,737.234314 
	C413.634369,735.865173 410.932953,734.549805 408.371490,733.006531 
	C395.240662,725.094604 393.798340,709.826904 405.460083,699.315430 
z"/>
<path fill="#000000" opacity="1.000000" stroke="none" 
	d="
M583.521484,603.292236 
	C581.044006,604.737305 580.462891,606.791199 580.437073,609.036560 
	C580.379578,614.031921 580.374146,619.028564 580.412170,624.024231 
	C580.441589,627.880676 582.325806,629.607666 586.308777,629.764954 
	C592.725525,630.018433 598.308350,629.027954 601.369629,622.512878 
	C601.498047,622.239685 601.829651,622.026428 602.113831,621.872192 
	C602.393066,621.720520 602.732361,621.679565 603.855225,621.358276 
	C603.855225,628.732849 603.855225,635.896729 603.855225,643.044922 
	C602.511963,643.520691 601.731689,642.794861 601.276794,641.911804 
	C597.790710,635.144409 591.487732,635.301819 585.254944,635.362183 
	C582.022095,635.393494 580.398743,637.130554 580.406250,640.401978 
	C580.420044,646.397583 580.406616,652.393372 580.385559,658.388977 
	C580.373901,661.724731 581.831177,663.566406 585.291077,664.113159 
	C590.993591,665.014282 596.614563,664.614807 602.113342,663.208679 
	C605.993225,662.216492 608.646484,659.361511 610.568176,655.872253 
	C611.418640,654.328186 611.905518,652.443359 613.925476,651.866211 
	C615.615967,654.757568 615.000427,666.382996 613.222778,668.513550 
	C612.166687,669.779358 610.810974,669.387390 609.530701,669.410156 
	C595.053894,669.668091 580.561768,668.720337 566.095459,669.988708 
	C564.464844,670.131592 562.686340,670.162537 561.902649,667.276245 
	C570.275513,666.207031 568.965088,659.686462 569.015381,654.004639 
	C569.133179,640.681763 569.125671,627.357239 569.089783,614.033630 
	C569.073303,607.911560 569.968750,601.268860 561.666199,599.444092 
	C562.556091,596.457764 564.624573,596.856384 566.319519,596.850647 
	C579.475891,596.806396 592.632568,596.870178 605.788879,596.818054 
	C608.867126,596.805908 610.762939,597.943359 610.267700,601.185547 
	C609.686218,604.992920 612.347107,608.890686 609.905579,613.345459 
	C605.289734,610.370850 604.479492,603.879456 598.696716,602.959045 
	C593.726074,602.167786 588.808228,601.945984 583.521484,603.292236 
z"/>
<path fill="#000000" opacity="1.000000" stroke="none" 
	d="
M299.831665,695.651489 
	C304.899872,695.053772 307.752655,695.917786 307.824158,701.686462 
	C307.870300,705.409607 308.604645,709.107971 307.912781,712.995361 
	C304.926117,713.128296 304.573730,710.836243 303.709473,709.218201 
	C300.867706,703.898071 296.729065,701.225098 290.451050,701.253052 
	C270.795166,701.340698 274.805389,700.480286 274.346741,717.160889 
	C274.323853,717.993042 274.179108,718.865723 274.368652,719.652588 
	C275.332855,723.654846 271.674438,729.439453 277.668549,731.427917 
	C285.661255,734.079590 293.532104,731.318604 297.336060,725.539612 
	C298.136780,724.323181 298.483704,722.668884 301.405426,722.839111 
	C302.448364,730.426147 301.260132,738.114685 301.597473,745.633362 
	C299.165894,746.271484 298.578094,744.959778 297.854034,743.875977 
	C294.080566,738.227661 282.393311,734.837280 276.511597,737.674011 
	C274.719452,738.538330 274.403259,740.171021 274.394440,741.866028 
	C274.352692,749.860229 274.325989,757.855103 274.393066,765.848938 
	C274.415802,768.558655 275.671539,770.623962 278.304108,771.686218 
	C279.492615,772.165833 280.898834,772.419983 281.227997,774.746216 
	C272.410767,774.746216 263.769318,774.746216 255.237549,774.746216 
	C254.982712,773.483643 255.116272,772.653625 255.790100,772.511902 
	C261.765076,771.255188 262.481476,766.481262 262.526001,761.787903 
	C262.693390,744.134827 262.642151,726.478760 262.537872,708.824646 
	C262.512207,704.481201 261.482361,700.470093 256.405518,699.152649 
	C255.984222,699.043335 255.611298,698.578186 255.320312,698.198425 
	C255.140762,697.964050 255.159180,697.578003 254.768814,695.815979 
	C269.814667,695.761108 284.585327,695.707214 299.831665,695.651489 
z"/>
<path fill="#000000" opacity="1.000000" stroke="none" 
	d="
M390.918823,862.067261 
	C392.910614,860.086426 394.130249,860.366028 394.315063,862.903748 
	C394.656952,867.598877 393.436432,872.131775 392.615417,876.696045 
	C392.195740,879.029175 390.368927,879.246399 388.405304,879.247131 
	C373.239990,879.252625 358.074677,879.295227 342.909363,879.299500 
	C341.140717,879.299988 339.173004,879.489380 338.474670,876.422913 
	C346.193970,875.360107 345.742737,869.606567 345.722107,863.960815 
	C345.665436,848.462219 345.654053,832.963013 345.732849,817.464600 
	C345.759155,812.286743 345.753235,807.301086 339.514587,805.419861 
	C339.261627,805.343628 339.038208,804.944763 338.938171,804.649719 
	C338.839935,804.360046 338.916748,804.010925 338.916748,803.039795 
	C347.254425,803.039795 355.587921,803.039795 363.814941,803.039795 
	C364.070923,804.723267 363.475464,805.388611 362.708954,805.685425 
	C357.896820,807.548828 357.370850,811.635803 357.363403,815.938232 
	C357.334045,832.936890 357.326294,849.935547 357.364075,866.934143 
	C357.377014,872.764404 358.252075,873.583435 364.024475,873.646118 
	C366.690643,873.675110 369.360535,873.570007 372.023224,873.671204 
	C380.754028,874.002869 387.199799,870.618103 390.918823,862.067261 
z"/>
<path fill="#000000" opacity="1.000000" stroke="none" 
	d="
M470.635254,600.253906 
	C469.498169,604.704407 471.731598,608.978027 470.727966,612.896667 
	C468.591492,613.159851 468.005493,612.268066 467.653259,611.358948 
	C464.881287,604.204224 458.884460,602.876404 452.222595,602.745056 
	C448.600861,602.673584 446.446503,604.440613 446.433807,608.102234 
	C446.372620,625.759888 446.453339,643.418030 446.385223,661.075623 
	C446.367981,665.540222 450.681641,665.940796 453.030945,668.208435 
	C449.431458,671.024536 432.054108,671.113159 427.651947,667.972900 
	C436.669189,665.569092 434.636414,658.571167 434.667419,652.468689 
	C434.740265,638.142334 434.736145,623.815247 434.682526,609.488708 
	C434.657776,602.878662 433.035919,601.555298 426.437256,602.586060 
	C421.014679,603.433167 415.939392,604.884094 413.758392,610.808044 
	C413.544312,611.389526 412.977203,611.866150 412.501678,612.314941 
	C412.286743,612.517761 411.894562,612.532776 411.011597,612.816650 
	C409.920288,607.949951 410.623352,603.317749 412.086365,598.792664 
	C412.575348,597.280273 414.350647,597.665344 415.623627,597.662659 
	C432.782196,597.626770 449.940826,597.626709 467.099457,597.620728 
	C468.756683,597.620178 470.628540,597.299988 470.635254,600.253906 
z"/>
<path fill="#000000" opacity="1.000000" stroke="none" 
	d="
M564.565002,751.493896 
	C564.576111,736.907837 564.628784,722.772461 564.566589,708.637573 
	C564.547729,704.338013 564.131104,700.123474 558.474915,699.403198 
	C557.414246,699.268127 556.685791,698.495056 556.797607,697.299194 
	C556.890198,696.309143 557.654602,695.826660 558.512756,695.822632 
	C566.718201,695.784241 574.923828,695.799744 582.695862,695.799744 
	C583.450256,697.346741 583.161072,698.189087 582.602905,698.334106 
	C576.428894,699.938110 576.300354,704.662842 576.333801,709.745422 
	C576.438843,725.709229 576.371216,741.674133 576.384705,757.638611 
	C576.393311,767.797485 576.404663,767.797485 584.038086,772.788818 
	C580.974609,776.111389 560.273926,776.448425 556.637756,772.906921 
	C568.065552,769.190369 563.648804,759.616699 564.565002,751.493896 
z"/>
</svg>